<svg width="20" height="19" viewBox="0 0 20 19" fill="none" xmlns="http://www.w3.org/2000/svg">
<path fill-rule="evenodd" clip-rule="evenodd" d="M1.42055 0.863625C1.89752 0.386658 2.67084 0.386658 3.14781 0.863625L18.6931 16.4089C19.17 16.8858 19.17 17.6592 18.6931 18.1361C18.2161 18.6131 17.4428 18.6131 16.9658 18.1361L1.42055 2.59088C0.943587 2.11391 0.943587 1.34059 1.42055 0.863625Z" fill="#213f7d"/>
<path fill-rule="evenodd" clip-rule="evenodd" d="M1.42027 18.1363C0.943299 17.6594 0.943299 16.886 1.42027 16.4091L16.9655 0.863822C17.4425 0.386856 18.2158 0.386855 18.6928 0.863823C19.1697 1.34079 19.1697 2.11411 18.6928 2.59107L3.14752 18.1363C2.67055 18.6133 1.89723 18.6133 1.42027 18.1363Z" fill="#213f7d"/>
</svg>
