<svg width="18" height="22" viewBox="0 0 18 22" fill="none" xmlns="http://www.w3.org/2000/svg">
<g clip-path="url(#clip0_20619_164)">
<path d="M17.625 13.0286L12.9 16.6849C12.545 16.959 12.1042 17.1081 11.65 17.108H0.5C0.367392 17.108 0.240215 17.057 0.146447 16.9664C0.0526784 16.8757 0 16.7527 0 16.6245V13.7236C0 13.5954 0.0526784 13.4724 0.146447 13.3817C0.240215 13.2911 0.367392 13.2401 0.5 13.2401H2.23125L3.68438 12.1009C4.3392 11.5872 5.15673 11.3066 6 11.3062H11C11.1458 11.306 11.2898 11.3365 11.4221 11.3957C11.5543 11.455 11.6716 11.5414 11.7657 11.6491C11.8598 11.7568 11.9284 11.883 11.9667 12.019C12.005 12.155 12.0121 12.2974 11.9875 12.4364C11.9062 12.9108 11.4437 13.2401 10.9469 13.2401H8.5C8.36739 13.2401 8.24021 13.2911 8.14645 13.3817C8.05268 13.4724 8 13.5954 8 13.7236C8 13.8518 8.05268 13.9748 8.14645 14.0655C8.24021 14.1562 8.36739 14.2071 8.5 14.2071H12.1969C12.6513 14.2082 13.0924 14.059 13.4469 13.7841L16.3344 11.551C16.7219 11.2488 17.2969 11.2276 17.6656 11.551C17.7744 11.6446 17.8606 11.76 17.9185 11.8892C17.9763 12.0184 18.0042 12.1582 18.0004 12.2989C17.9965 12.4396 17.9609 12.5778 17.8961 12.7039C17.8312 12.8299 17.7387 12.9407 17.625 13.0286Z" fill="#213F7D"/>
</g>
<g clip-path="url(#clip1_20619_164)">
<path opacity="0.4" d="M7.75004 2.48273H10.25L11.1758 1.13956C11.2072 1.09406 11.2253 1.04116 11.228 0.986523C11.2307 0.931884 11.2181 0.877549 11.1914 0.829314C11.1647 0.781079 11.125 0.740753 11.0765 0.712639C11.0279 0.684525 10.9724 0.669676 10.9159 0.669678H7.08481C7.02823 0.669676 6.97272 0.684525 6.92419 0.712639C6.87566 0.740753 6.83594 0.781079 6.80925 0.829314C6.78256 0.877549 6.76992 0.931884 6.77267 0.986523C6.77541 1.04116 6.79345 1.09406 6.82485 1.13956L7.75004 2.48273ZM10.25 3.08708H7.75004C3.79731 5.26652 4.0018 8.16061 4.0018 8.52624C4.0018 9.5272 4.96098 10.3393 6.14399 10.3393H11.8565C13.0397 10.3393 13.9987 9.5272 13.9987 8.52624C13.9987 8.16741 14.1813 5.25444 10.25 3.08708Z" fill="#213F7D"/>
<path d="M10.582 2.63381V2.93599C10.582 2.97606 10.5656 3.01449 10.5363 3.04283C10.507 3.07116 10.4672 3.08708 10.4258 3.08708H7.57422C7.53278 3.08708 7.49304 3.07116 7.46373 3.04283C7.43443 3.01449 7.41797 2.97606 7.41797 2.93599V2.63381C7.41797 2.59374 7.43443 2.55531 7.46373 2.52698C7.49304 2.49865 7.53278 2.48273 7.57422 2.48273H10.4258C10.4672 2.48273 10.507 2.49865 10.5363 2.52698C10.5656 2.55531 10.582 2.59374 10.582 2.63381Z" fill="#213F7D"/>
<path d="M7.67198 8.045V6.67746H7.125V6.26291H7.67198V4.90015H8.44563L9.21436 6.26291H9.7367V4.90015H10.328V6.26291H10.875V6.67746H10.328V8.045H9.55437L8.77579 6.67746H8.2633V8.045H7.67198ZM8.2633 6.22003V6.26291H8.53926L8.25345 5.70542H8.24852L8.2633 6.22003ZM9.74655 7.25402H9.75641L9.7367 6.75847V6.67746H9.44596L9.46567 6.70605L9.74655 7.25402Z" fill="#213F7D"/>
</g>
<defs>
<clipPath id="clip0_20619_164">
<rect width="18" height="15.4714" fill="white" transform="translate(0 6.47144)"/>
</clipPath>
<clipPath id="clip1_20619_164">
<rect width="10" height="9.66962" fill="white" transform="translate(4 0.669678)"/>
</clipPath>
</defs>
</svg>
