<svg width="16" height="16" viewBox="0 0 16 16" fill="none" xmlns="http://www.w3.org/2000/svg">
<path opacity="0.4" d="M10 8.92505H16V13.2764C16 14.05 15.3 14.7268 14.5 14.7268H1.5C0.7 14.7268 0 14.05 0 13.2764V8.92505H6V10.3755C6 10.5037 6.05268 10.6267 6.14645 10.7174C6.24021 10.808 6.36739 10.859 6.5 10.859H9.5C9.63261 10.859 9.75979 10.808 9.85355 10.7174C9.94732 10.6267 10 10.5037 10 10.3755V8.92505Z" fill="#213F7D"/>
<path d="M14.5 4.09023H12V2.63978C12 1.86621 11.3 1.18933 10.5 1.18933H5.5C4.7 1.18933 4 1.86621 4 2.63978V4.09023H1.5C0.7 4.09023 0 4.7671 0 5.54067V7.95808H16V5.54067C16 4.7671 15.3 4.09023 14.5 4.09023ZM10 4.09023H6V3.12326H10V4.09023Z" fill="#213F7D"/>
</svg>
